<?xml version="1.0" encoding="utf-8"?>
<!-- Generator: Adobe Illustrator 24.1.2, SVG Export Plug-In . SVG Version: 6.00 Build 0)  -->
<svg version="1.1" id="Layer_2_1_" xmlns="http://www.w3.org/2000/svg" xmlns:xlink="http://www.w3.org/1999/xlink" x="0px" y="0px"
	 viewBox="0 0 120.1 119.9" style="enable-background:new 0 0 120.1 119.9;" xml:space="preserve">
<style type="text/css">
	.st0{fill:#FFFFFF;}
</style>
<path id="Path_72" class="st0" d="M70.5,0.7L69.6,8l-1.2-0.2l0.4-3.3l-3.4-0.4L65,7.4l-1.2-0.2L64.7,0l1.2,0.2l-0.4,3.1l3.4,0.4
	l0.4-3.1L70.5,0.7z"/>
<path id="Path_73" class="st0" d="M74.9,1.8l-1.8,7.1L72,8.6l1.8-7.1L74.9,1.8z"/>
<path id="Path_74" class="st0" d="M79.2,10.8l-0.7-3.4l-0.8-0.3l-1,2.8l-1.1-0.4l2.5-6.9l2.4,0.9c0.7,0.2,1.2,0.6,1.6,1.2
	c0.3,0.5,0.3,1.2,0.1,1.8C82,7,81.7,7.4,81.2,7.7c-0.5,0.2-1,0.3-1.6,0.2l0.8,3.5L79.2,10.8z M78,6.4l1.2,0.4
	c0.9,0.3,1.5,0.1,1.8-0.7c0.1-0.3,0.1-0.7,0-1c-0.2-0.3-0.5-0.6-0.9-0.7L78.9,4L78,6.4z"/>
<path id="Path_75" class="st0" d="M86.3,7l-1,2l2.4,1.2l-0.4,0.8l-2.4-1.2l-1,2l2.7,1.4l-0.4,0.9l-3.7-1.9l3.4-6.5l3.7,1.9L89,8.4
	L86.3,7z"/>
<path id="Path_76" class="st0" d="M101.4,16.5L96.8,22l-0.9-0.8l3.5-4.2l-5.1,2.8l-0.8-0.7l1.9-5.5l-3.5,4.2l-0.9-0.8l4.7-5.5
	l1.1,0.9l-1.9,6l5.5-2.9L101.4,16.5z"/>
<path id="Path_77" class="st0" d="M104,20.5l-1.7,1.5l1.8,2l-0.7,0.6l-1.8-2l-1.7,1.5l2,2.3l-0.7,0.6l-2.8-3.2l5.5-4.8l2.8,3.2
	l-0.7,0.6L104,20.5z"/>
<path id="Path_78" class="st0" d="M111.7,36l-0.9,0.4l-1.9-3.8l0.9-0.4L111.7,36z"/>
<path id="Path_79" class="st0" d="M119.5,51.6l-7.2,1.4l-0.2-1.2l3.2-0.6l-0.6-3.4l-3.2,0.6l-0.2-1.2l7.2-1.4l0.2,1.2l-3,0.6
	l0.6,3.4l3-0.6L119.5,51.6z"/>
<path id="Path_80" class="st0" d="M119.9,56.1l-7.3,0.5l-0.1-1.2l7.3-0.5L119.9,56.1z"/>
<path id="Path_81" class="st0" d="M112.6,63l3-1.7l0-0.8l-2.9-0.1l0-1.2l7.4,0.2L120,62c0,0.7-0.2,1.4-0.7,1.9
	c-0.4,0.4-1,0.6-1.6,0.6c-0.5,0-1-0.2-1.4-0.5c-0.4-0.4-0.6-0.9-0.7-1.4l-3,1.8L112.6,63z M116.4,60.5l0,1.3c0,1,0.4,1.5,1.2,1.5
	c0.3,0,0.7-0.1,1-0.3c0.3-0.3,0.4-0.7,0.4-1.1l0-1.3L116.4,60.5z"/>
<path id="Path_82" class="st0" d="M118.4,68.6l-2.2-0.4l-0.4,2.7l-0.9-0.1l0.4-2.7l-2.3-0.4l-0.5,3l-1-0.2l0.7-4.2l7.3,1.2l-0.7,4.2
	l-0.9-0.2L118.4,68.6z"/>
<path id="Path_83" class="st0" d="M114.1,85.9l-6.7-2.7l0.4-1.1l5,2l-4.2-4l0.4-1l5.8,0.1l-5-2l0.4-1.1l6.7,2.7l-0.5,1.3l-6.3,0.1
	l4.5,4.3L114.1,85.9z"/>
<path id="Path_84" class="st0" d="M111.1,89.6l-1.9-1.1l-1.4,2.3l-0.8-0.5l1.4-2.3l-2-1.2l-1.6,2.6l-0.8-0.5l2.2-3.6l6.3,3.8
	l-2.2,3.6l-0.8-0.5L111.1,89.6z"/>
<path id="Path_85" class="st0" d="M98.7,101.7l-0.7-0.7l3.1-3l0.7,0.7L98.7,101.7z"/>
<path id="Path_86" class="st0" d="M86.3,113.9l-3.5-6.4l1-0.6l1.6,2.9l3-1.7l-1.6-2.9l1-0.6l3.5,6.4l-1,0.6l-1.5-2.7l-3,1.7l1.5,2.7
	L86.3,113.9z"/>
<path id="Path_87" class="st0" d="M82.1,115.7l-2.8-6.8l1.1-0.4l2.8,6.8L82.1,115.7z"/>
<path id="Path_88" class="st0" d="M73.3,110.9l2.6,2.3l0.8-0.2l-0.8-2.8l1.1-0.3l2.1,7.1l-2.5,0.7c-0.7,0.2-1.4,0.2-2-0.1
	c-0.5-0.3-0.9-0.8-1.1-1.4c-0.2-0.5-0.1-1,0.1-1.5c0.2-0.5,0.7-0.9,1.1-1.1l-2.7-2.3L73.3,110.9z M76.9,113.8l-1.3,0.4
	c-0.9,0.3-1.3,0.8-1,1.6c0.1,0.3,0.3,0.6,0.6,0.8c0.4,0.2,0.8,0.2,1.1,0l1.3-0.4L76.9,113.8z"/>
<path id="Path_89" class="st0" d="M69.8,118.2l-0.3-2.2l-2.7,0.4l-0.1-0.9l2.7-0.4l-0.3-2.3l-3,0.5l-0.1-1l4.2-0.6l1.1,7.3l-4.2,0.6
	l-0.1-0.9L69.8,118.2z"/>
<path id="Path_90" class="st0" d="M52.1,119.4l0.5-7.2l1.2,0.1l-0.4,5.4l2.5-5.3l1,0.1l1.7,5.6l0.4-5.4l1.2,0.1l-0.5,7.2l-1.4-0.1
	l-2-5.9l-2.7,5.6L52.1,119.4z"/>
<path id="Path_91" class="st0" d="M47.6,117.7l0.5-2.2l-2.6-0.6l0.2-0.9l2.6,0.6l0.5-2.2l-2.9-0.7l0.2-0.9l4.1,0.9l-1.6,7.2
	l-4.1-0.9l0.2-0.9L47.6,117.7z"/>
<path id="Path_92" class="st0" d="M32.3,109.7l0.5-0.9l3.8,2l-0.5,0.9L32.3,109.7z"/>
<path id="Path_93" class="st0" d="M16.8,101.7l5-5.4l0.9,0.8l-2.3,2.4l2.5,2.4l2.3-2.4l0.9,0.8l-5,5.4l-0.9-0.8l2.1-2.2l-2.5-2.4
	l-2.1,2.2L16.8,101.7z"/>
<path id="Path_94" class="st0" d="M13.8,98.3l5.6-4.8l0.8,0.9l-5.6,4.8L13.8,98.3z"/>
<path id="Path_95" class="st0" d="M15.6,88.4l-1.4,3.2l0.5,0.7l2.4-1.7l0.7,1l-6.1,4.1l-1.5-2.1c-0.4-0.5-0.6-1.2-0.6-1.9
	c0.1-0.6,0.5-1.1,1-1.5c0.4-0.3,0.9-0.5,1.4-0.4c0.5,0.1,1,0.4,1.4,0.8l1.4-3.3L15.6,88.4z M14,92.7l-0.7-1.1
	c-0.5-0.8-1.2-0.9-1.9-0.5c-0.3,0.2-0.5,0.5-0.6,0.8c0,0.4,0.1,0.8,0.3,1.1l0.7,1.1L14,92.7z"/>
<path id="Path_96" class="st0" d="M7.6,87.3l2-1l-1.2-2.4l0.8-0.4l1.2,2.4l2-1l-1.4-2.7l0.9-0.4l1.9,3.8l-6.6,3.3l-1.9-3.8l0.9-0.4
	L7.6,87.3z"/>
<path id="Path_97" class="st0" d="M0.9,70.8L8,69l0.3,1.2L3,71.5l5.8,0.7l0.3,1l-4.8,3.4l5.3-1.3l0.3,1.2l-7,1.8l-0.3-1.4l5-3.7
	l-6.2-0.9L0.9,70.8z"/>
<path id="Path_98" class="st0" d="M1.2,66l2.2-0.2l-0.2-2.7L4.1,63l0.2,2.7l2.3-0.2l-0.3-3l1-0.1l0.4,4.2l-7.3,0.7L0,63.1L1,63
	L1.2,66z"/>
<path id="Path_99" class="st0" d="M4.1,49l1,0.2l-0.7,4.2l-1-0.2L4.1,49z"/>
<path id="Path_100" class="st0" d="M6.9,31.7l6.7,3.1L13,35.9l-3-1.4l-1.5,3.1l3,1.4l-0.5,1.1L4.4,37l0.5-1.1l2.8,1.3l1.5-3.1
	l-2.8-1.3L6.9,31.7z"/>
<path id="Path_101" class="st0" d="M9.2,27.9l6.3,3.9l-0.6,1l-6.3-3.9L9.2,27.9z"/>
<path id="Path_102" class="st0" d="M19.2,26.6l-3.4-0.3l-0.5,0.7l2.3,1.8l-0.7,0.9L11,25.1l1.6-2.1c0.4-0.6,1-1,1.7-1.1
	c0.6-0.1,1.2,0.1,1.7,0.5c0.4,0.3,0.7,0.7,0.8,1.2c0.1,0.5,0,1.1-0.3,1.5l3.5,0.3L19.2,26.6z M14.6,26.4l0.8-1
	c0.6-0.8,0.5-1.4-0.1-1.9c-0.3-0.2-0.6-0.3-1-0.3c-0.4,0.1-0.7,0.3-0.9,0.7l-0.8,1L14.6,26.4z"/>
<path id="Path_103" class="st0" d="M17.7,18.6l1.6,1.6l1.9-1.9l0.6,0.6L20,20.9l1.6,1.6l2.1-2.1l0.7,0.7l-3,3l-5.2-5.2l3-3l0.7,0.7
	L17.7,18.6z"/>
<path id="Path_104" class="st0" d="M31.3,7.1l3.9,6.1l-1,0.6l-2.9-4.6l1.1,5.7l-0.9,0.6l-4.7-3.5l2.9,4.6l-1,0.6l-3.9-6.1l1.2-0.8
	l5.1,3.6l-1.1-6.2L31.3,7.1z"/>
<path id="Path_105" class="st0" d="M36,5.9l0.9,2l2.5-1.1l0.4,0.8l-2.5,1.1l0.9,2.1l2.8-1.2l0.4,0.9l-3.9,1.7l-2.9-6.8l3.9-1.7
	l0.4,0.9L36,5.9z"/>
<path id="Path_106" class="st0" d="M53.1,3.4l0.1,1L49,5l-0.1-1L53.1,3.4z"/>
</svg>
